# xmcd CD database file
#
# Track frame offsets:
#	150
#	8665
#	26093
#	51504
#	81191
#	100763
#	115738
#	139949
#	166924
#	199258
#	211620
#	230270
#	246974
#	259455
#	286822
#	302748
#	316146
#	329477
#	340550
#	348203
#
# Disc length: 4719 seconds
#
# Revision: 0
# Processed by: cddbd v1.5.2PL0 Copyright (c) Steve Scherf et al.
# Submitted via: CDex 1.70beta2
#
DISCID=17126d14
DTITLE=Lill Lindfors - Coastlines
DYEAR=2007
DGENRE=Jazz
TTITLE0=Coastlines
TTITLE1=To a Wandering Female Singer
TTITLE2=A Parting Song
TTITLE3=Lost Chords
TTITLE4=The Strangers Heart
TTITLE5=Intermezzo 1
TTITLE6=The Mask
TTITLE7=Lines
TTITLE8=The Cry of the Children
TTITLE9=Desire
TTITLE10=I Have Been There
TTITLE11=My Heart and I
TTITLE12=Intermezzo 2
TTITLE13=Echoes
TTITLE14=Homeless
TTITLE15=The Sorrowful Sea-gull
TTITLE16=My Dreams
TTITLE17=Song
TTITLE18=Coastlines (reprise)
TTITLE19=To a Wandering Female Singer (finale)
EXTD=YEAR: 2007
EXTT0=
EXTT1=
EXTT2=
EXTT3=
EXTT4=
EXTT5=
EXTT6=
EXTT7=
EXTT8=
EXTT9=
EXTT10=
EXTT11=
EXTT12=
EXTT13=
EXTT14=
EXTT15=
EXTT16=
EXTT17=
EXTT18=
EXTT19=
PLAYORDER=
